:SAMPLES-PER-SECOND 30
:FULLY-SPECIFIED
:DEGREES
163
root  5.587288714 40.84422194 1.143373373 -11.97900391 -72.97299957 21.07202148
lowerback  15.16759968 3.596210003 -0.3773899972
upperback  6.504189968 4.397580147 -0.2167840004
thorax  -1.611310005 2.073539972 -0.7217429876
lowerneck  4.144120216 4.081190109 -5.215489864
upperneck  2.601370096 5.192130089 -4.103509903
head  0.1000949964 2.52937007 -0.4600540102
lclavicle  0 -9.442270133e-015 7.951389973e-016
lhumerus  -30.56719971 0.86432302 67.51989746
lradius  2.971413339e-031 -1.90775963e-031 147.2980042
lwrist  -7.062250077e-031 -0 22.88710022
lhand  -1.496451383e-031 -27.76390076 20.11240005
lfingers  90 7.125020027 -90
lthumb  89.89689403 5.08795885 91.16245106
rclavicle  0 -9.442270133e-015 7.951389973e-016
rhumerus  -10.12899971 16.84770012 -74.56639862
rradius  -1.401926262e-031 3.240902157e-031 113.3919983
rwrist  7.062250077e-031 -0 -11.9836998
rhand  -7.920061211e-032 -33.2840004 9.303460121
rfingers  -90 -7.125020027 -90
rthumb  -92.93752616 -24.25625642 -97.11982154
rfemur  -17.89349937 11.19369984 0.371675998
rtibia  -0 0 52.15050125
rfoot  -0 -18.03409958 -16.79669952
rtoes  5.373923086 19.29304026 -105.8922705
lfemur  -28.34609985 1.223960042 -6.382949829
ltibia  -0 0 47.03950119
lfoot  -0 -0.2429749966 13.61540031
ltoes  -4.250644065 -19.5611806 -102.515957
164
root  5.650599923 40.8419992 1.01450447 -11.68499756 -73.18399811 20.5
lowerback  15.07409954 3.260309935 -0.404132992
upperback  6.450510025 3.956350088 -0.2357379943
thorax  -1.622439981 1.854910016 -0.6519280076
lowerneck  4.437399864 4.374579906 -4.96216011
upperneck  2.697139978 5.573120117 -3.817689896
head  0.0792953968 2.721529961 -0.4245629907
lclavicle  0 -9.442270133e-015 7.951389973e-016
lhumerus  -29.04969978 1.134349942 64.95619965
lradius  2.983440035e-031 -1.888896396e-031 147.6609955
lwrist  -7.062250077e-031 4.413906298e-032 23.74650002
lhand  -1.496451383e-031 -27.76390076 20.11240005
lfingers  90 7.125020027 -90
lthumb  89.89689403 5.08795885 91.16245106
rclavicle  0 -9.442270133e-015 7.951389973e-016
rhumerus  -9.404299736 15.75739956 -73.52410126
rradius  -1.547666517e-031 3.173889159e-031 115.9950027
rwrist  7.062250077e-031 -0 -12.21280003
rhand  -7.920061211e-032 -33.2840004 9.303460121
rfingers  -90 -7.125020027 -90
rthumb  -92.93752616 -24.25625642 -97.11982154
rfemur  -18.20409966 11.04290009 0.7173699737
rtibia  -0 0 53.35950089
rfoot  -0 -17.80940056 -16.88839912
rtoes  5.373923086 19.29304026 -105.8922705
lfemur  -29.09320068 1.533210039 -6.380469799
ltibia  -0 0 49.25910187
lfoot  -0 -0.170341 12.98019981
ltoes  -4.250644065 -19.5611806 -102.515957
165
root  5.710777898 40.80644442 0.8869421764 -12.04498291 -73.41999817 20.54699707
lowerback  15.03789997 3.061000109 -0.6016770005
upperback  6.390039921 3.668869972 -0.286161989
thorax  -1.678009987 1.710129976 -0.5478320122
lowerneck  4.575540066 4.589360237 -4.55009985
upperneck  2.971129894 5.876999855 -3.599869967
head  0.1442070007 2.869329929 -0.427320987
lclavicle  0 -9.442270133e-015 7.951389973e-016
lhumerus  -27.18470001 1.195369959 62.41830063
lradius  2.986337567e-031 -1.884312069e-031 147.7489929
lwrist  -7.062250077e-031 8.827812596e-032 24.40460014
lhand  -1.496451383e-031 -27.76390076 20.11240005
lfingers  90 7.125020027 -90
lthumb  89.89689403 5.08795885 91.16245106
rclavicle  0 -9.442270133e-015 7.951389973e-016
rhumerus  -8.586979866 14.48639965 -72.36019897
rradius  -1.684798982e-031 3.103271891e-031 118.4980011
rwrist  1.412450015e-030 -0 -12.47980022
rhand  -7.920061211e-032 -33.2840004 9.303460121
rfingers  -90 -7.125020027 -90
rthumb  -92.93752616 -24.25625642 -97.11982154
rfemur  -18.42840004 11.00809956 0.8668730259
rtibia  -0 0 54.58739853
rfoot  -0 -17.53409958 -16.17309952
rtoes  5.373923086 19.29304026 -105.8922705
lfemur  -29.79210091 2.052099943 -6.628630161
ltibia  -0 0 51.63700104
lfoot  -0 -0.005071579944 12.07209969
ltoes  -4.250644065 -19.5611806 -102.515957
166
root  5.773711017 40.73577641 0.7546933148 -12.89801025 -73.70800018 21.04302979
lowerback  15.09980011 3.014219999 -0.8001350164
upperback  6.346600056 3.573319912 -0.4600059986
thorax  -1.757640004 1.661309958 -0.6069059968
lowerneck  4.550769806 4.664000034 -3.818269968
upperneck  3.293809891 6.023900032 -3.491130114
head  0.2628200054 2.940850019 -0.50583601
lclavicle  0 -9.442270133e-015 7.951389973e-016
lhumerus  -24.89660072 1.212659955 59.83250046
lradius  2.983505932e-031 -1.888792311e-031 147.6629944
lwrist  -7.062250077e-031 4.413906298e-032 25.13969994
lhand  -1.496451383e-031 -27.76390076 20.11240005
lfingers  90 7.125020027 -90
lthumb  89.89689403 5.08795885 91.16245106
rclavicle  0 -9.442270133e-015 7.951389973e-016
rhumerus  -7.699470043 12.88199997 -71.26119995
rradius  -1.810521958e-031 3.031642175e-031 120.8460007
rwrist  1.412450015e-030 -0 -12.76229954
rhand  -7.920061211e-032 -33.2840004 9.303460121
rfingers  -90 -7.125020027 -90
rthumb  -92.93752616 -24.25625642 -97.11982154
rfemur  -18.57920074 11.1225996 0.9059609771
rtibia  -0 0 55.79990005
rfoot  -0 -17.26300049 -14.68669987
rtoes  5.373923086 19.29304026 -105.8922705
lfemur  -30.47109985 2.833920002 -7.062369823
ltibia  -0 0 54.08580017
lfoot  -0 -0.0136610996 10.63939953
ltoes  -4.250644065 -19.5611806 -102.515957
